<?xml version="1.0" standalone="no"?>
<!DOCTYPE svg PUBLIC "-//W3C//DTD SVG 20010904//EN"
 "http://www.w3.org/TR/2001/REC-SVG-20010904/DTD/svg10.dtd">
<svg version="1.0" xmlns="http://www.w3.org/2000/svg"
 width="700.000000pt" height="700.000000pt" viewBox="0 0 700.000000 700.000000"
 preserveAspectRatio="xMidYMid meet">
<metadata>
Created by potrace 1.11, written by Peter Selinger 2001-2013
</metadata>
<g transform="translate(0.000000,700.000000) scale(0.100000,-0.100000)"
fill="#000000" stroke="none">
<path d="M3397 6884 c-1 -1 -60 -5 -132 -8 -71 -4 -143 -8 -160 -10 -105 -12
-154 -18 -180 -22 -40 -6 -184 -33 -215 -39 -14 -4 -36 -8 -49 -11 -40 -8
-243 -64 -286 -79 -213 -72 -300 -109 -510 -215 -521 -263 -968 -660 -1296
-1151 -105 -157 -212 -350 -278 -504 -12 -27 -26 -59 -31 -70 -81 -171 -206
-630 -226 -825 -3 -25 -7 -56 -9 -70 -11 -60 -20 -206 -20 -345 l0 -150 34
-67 c40 -80 100 -139 179 -176 49 -23 70 -27 152 -27 85 0 101 3 154 29 95 47
167 130 198 231 5 16 11 66 13 110 6 127 15 257 20 295 12 98 17 131 31 200 8
41 20 93 25 115 6 22 12 47 14 55 25 131 156 451 257 630 283 502 766 929
1303 1153 160 66 419 145 535 163 19 3 60 9 90 14 156 25 253 33 425 33 124 1
294 -8 343 -18 9 -1 40 -6 67 -9 113 -15 299 -59 426 -100 200 -66 211 -70
384 -156 211 -103 403 -231 589 -390 50 -43 201 -197 247 -251 24 -28 49 -57
54 -63 6 -6 34 -41 62 -78 294 -385 481 -859 531 -1343 14 -143 8 -465 -13
-615 -10 -74 -16 -117 -20 -130 -2 -8 -7 -31 -10 -50 -16 -98 -74 -290 -128
-430 -41 -105 -157 -342 -194 -396 -11 -16 -37 -56 -58 -89 -177 -280 -471
-576 -759 -763 -56 -36 -112 -73 -126 -82 -45 -30 -283 -147 -355 -174 -38
-15 -79 -31 -90 -36 -63 -29 -332 -102 -420 -115 -22 -4 -47 -8 -55 -10 -14
-4 -30 -7 -122 -19 -50 -7 -161 -16 -278 -21 -144 -7 -161 -10 -226 -41 -182
-86 -257 -308 -167 -492 48 -97 153 -178 258 -197 39 -7 250 -7 310 0 17 2 59
6 95 9 111 11 154 16 180 21 14 3 43 7 65 11 22 3 47 7 55 9 8 2 31 7 50 10
79 13 313 77 436 119 757 260 1388 761 1813 1440 118 189 246 457 319 668 38
109 89 283 98 337 3 12 11 51 19 85 19 82 52 311 61 416 14 166 8 519 -11 659
-2 14 -6 49 -10 76 -30 231 -129 613 -201 772 -8 18 -21 50 -28 70 -24 65
-102 224 -170 346 -152 271 -347 529 -567 747 -74 74 -146 144 -160 155 -104
87 -195 158 -254 200 -38 27 -76 55 -83 62 -7 7 -17 13 -22 13 -5 0 -15 6 -22
13 -8 6 -25 18 -38 26 -14 8 -54 33 -90 55 -67 41 -315 169 -385 198 -141 60
-200 82 -313 119 -70 22 -134 42 -142 44 -8 2 -60 15 -115 29 -98 24 -287 59
-394 71 -30 4 -63 9 -75 11 -12 2 -88 7 -171 10 -82 3 -167 7 -188 8 -20 1
-38 1 -40 0z"/>
<path d="M4339 4707 c-267 -313 -344 -402 -349 -407 -3 -3 -43 -50 -90 -105
-46 -55 -91 -107 -100 -116 -8 -9 -35 -40 -60 -70 -25 -29 -76 -90 -113 -134
-38 -44 -85 -100 -105 -123 -21 -24 -52 -60 -69 -80 -18 -20 -33 -39 -33 -43
0 -4 -9 -10 -19 -14 -13 -4 -74 29 -202 111 -291 185 -510 323 -708 448 l-183
115 -98 -156 -98 -156 317 -200 c430 -272 465 -294 711 -449 119 -75 241 -152
272 -171 l56 -36 23 27 c13 15 58 68 99 117 41 49 84 99 95 111 11 12 29 32
39 45 27 34 115 136 152 179 17 19 129 150 249 290 250 293 244 286 484 565
l181 210 -49 45 c-27 25 -57 52 -67 60 -11 9 -51 44 -91 78 l-71 61 -173 -202z"/>
</g>
</svg>
